
<global>
amp_veltrack=0
ampeg_attack=0.01
ampeg_release=0.25
</global>

<group>
group_label=Group_0-42
xfin_hicc1=42
xfout_hicc1=84
xfout_locc1=42

<region>
hikey=B1
hivel=127
lokey=A#1
lovel=1
offset=7227
pitch_keycenter=A#1
sample=Cimbasso_marcato_half_PP_A#2.opus
tune=+3
</region>

<region>
hikey=B2
hivel=127
lokey=A#2
lovel=1
offset=7645
pitch_keycenter=A#2
sample=Cimbasso_marcato_half_PP_A#3.opus
tune=+5
</region>

<region>
hikey=C4
hivel=127
lokey=A#3
lovel=1
offset=968
pitch_keycenter=A#3
sample=Cimbasso_marcato_half_PP_A#4.opus
tune=-9
</region>

<region>
hikey=C#2
hivel=127
lokey=C2
lovel=1
offset=8159
pitch_keycenter=C2
sample=Cimbasso_marcato_half_PP_C3.opus
tune=-8
</region>

<region>
hikey=C#3
hivel=127
lokey=C3
lovel=1
offset=2818
pitch_keycenter=C3
sample=Cimbasso_marcato_half_PP_C4.opus
tune=-16
</region>

<region>
hikey=D#2
hivel=127
lokey=D2
lovel=1
offset=9132
pitch_keycenter=D2
sample=Cimbasso_marcato_half_PP_D3.opus
tune=-15
</region>

<region>
hikey=D#3
hivel=127
lokey=D3
lovel=1
offset=3570
pitch_keycenter=D3
sample=Cimbasso_marcato_half_PP_D4.opus
tune=-30
</region>

<region>
hikey=F1
hivel=127
lokey=E1
lovel=1
offset=6713
pitch_keycenter=E1
sample=Cimbasso_marcato_half_PP_E2.opus
tune=+7
</region>

<region>
hikey=F2
hivel=127
lokey=E2
lovel=1
offset=3705
pitch_keycenter=E2
sample=Cimbasso_marcato_half_PP_E3.opus
tune=-8
</region>

<region>
hikey=F3
hivel=127
lokey=E3
lovel=1
offset=2026
pitch_keycenter=E3
sample=Cimbasso_marcato_half_PP_E4.opus
tune=-12
</region>

<region>
hikey=G1
hivel=127
lokey=F#1
lovel=1
offset=6444
pitch_keycenter=F#1
sample=Cimbasso_marcato_half_PP_F#2.opus
tune=+7
</region>

<region>
hikey=G2
hivel=127
lokey=F#2
lovel=1
offset=7773
pitch_keycenter=F#2
sample=Cimbasso_marcato_half_PP_F#3.opus
tune=+13
</region>

<region>
hikey=G3
hivel=127
lokey=F#3
lovel=1
offset=1318
pitch_keycenter=F#3
sample=Cimbasso_marcato_half_PP_F#4.opus
tune=+8
</region>

<region>
hikey=A1
hivel=127
lokey=G#1
lovel=1
offset=6622
pitch_keycenter=G#1
sample=Cimbasso_marcato_half_PP_G#2.opus
tune=+16
</region>

<region>
hikey=A2
hivel=127
lokey=G#2
lovel=1
offset=1480
pitch_keycenter=G#2
sample=Cimbasso_marcato_half_PP_G#3.opus
</region>

<region>
hikey=A3
hivel=127
lokey=G#3
lovel=1
offset=1308
pitch_keycenter=G#3
sample=Cimbasso_marcato_half_PP_G#4.opus
tune=+4
</region>
</group>

<group>
group_label=Group_43-84
xfin_hicc1=84
xfin_locc1=43
xfout_hicc1=125
xfout_locc1=84

<region>
hikey=B1
hivel=127
lokey=A#1
lovel=1
offset=1215
pitch_keycenter=A#1
sample=Cimbasso_marcato_half_MF_A#2.opus
tune=-1
</region>

<region>
hikey=B2
hivel=127
lokey=A#2
lovel=1
offset=363
pitch_keycenter=A#2
sample=Cimbasso_marcato_half_MF_A#3.opus
</region>

<region>
hikey=C4
hivel=127
lokey=A#3
lovel=1
offset=1353
pitch_keycenter=A#3
sample=Cimbasso_marcato_half_MF_A#4.opus
tune=-2
</region>

<region>
hikey=C#2
hivel=127
lokey=C2
lovel=1
offset=2624
pitch_keycenter=C2
sample=Cimbasso_marcato_half_MF_C3.opus
tune=-1
</region>

<region>
hikey=C#3
hivel=127
lokey=C3
lovel=1
offset=1370
pitch_keycenter=C3
sample=Cimbasso_marcato_half_MF_C4.opus
tune=-2
</region>

<region>
hikey=D#2
hivel=127
lokey=D2
lovel=1
offset=724
pitch_keycenter=D2
sample=Cimbasso_marcato_half_MF_D3.opus
tune=-2
</region>

<region>
hikey=D#3
hivel=127
lokey=D3
lovel=1
offset=702
pitch_keycenter=D3
sample=Cimbasso_marcato_half_MF_D4.opus
tune=-2
</region>

<region>
hikey=F1
hivel=127
lokey=E1
lovel=1
offset=1185
pitch_keycenter=E1
sample=Cimbasso_marcato_half_MF_E2.opus
tune=+1
</region>

<region>
hikey=F2
hivel=127
lokey=E2
lovel=1
offset=450
pitch_keycenter=E2
sample=Cimbasso_marcato_half_MF_E3.opus
</region>

<region>
hikey=F3
hivel=127
lokey=E3
lovel=1
offset=715
pitch_keycenter=E3
sample=Cimbasso_marcato_half_MF_E4.opus
tune=-2
</region>

<region>
hikey=G1
hivel=127
lokey=F#1
lovel=1
offset=2762
pitch_keycenter=F#1
sample=Cimbasso_marcato_half_MF_F#2.opus
tune=-1
</region>

<region>
hikey=G2
hivel=127
lokey=F#2
lovel=1
offset=489
pitch_keycenter=F#2
sample=Cimbasso_marcato_half_MF_F#3.opus
tune=-2
</region>

<region>
hikey=G3
hivel=127
lokey=F#3
lovel=1
offset=923
pitch_keycenter=F#3
sample=Cimbasso_marcato_half_MF_F#4.opus
tune=-2
</region>

<region>
hikey=A1
hivel=127
lokey=G#1
lovel=1
offset=1385
pitch_keycenter=G#1
sample=Cimbasso_marcato_half_MF_G#2.opus
tune=-3
</region>

<region>
hikey=A2
hivel=127
lokey=G#2
lovel=1
offset=118
pitch_keycenter=G#2
sample=Cimbasso_marcato_half_MF_G#3.opus
tune=-2
</region>

<region>
hikey=A3
hivel=127
lokey=G#3
lovel=1
offset=1166
pitch_keycenter=G#3
sample=Cimbasso_marcato_half_MF_G#4.opus
tune=-2
</region>
</group>

<group>
group_label=Group_85-127
xfin_hicc1=127
xfin_locc1=85
xfout_hicc1=127
xfout_locc1=127

<region>
hikey=B1
hivel=127
lokey=A#1
lovel=1
offset=601
pitch_keycenter=A#1
sample=Cimbasso_marcato_half_FF_A#2.opus
tune=-4
</region>

<region>
hikey=B2
hivel=127
lokey=A#2
lovel=1
offset=543
pitch_keycenter=A#2
sample=Cimbasso_marcato_half_FF_A#3.opus
</region>

<region>
hikey=C4
hivel=127
lokey=A#3
lovel=1
offset=1154
pitch_keycenter=A#3
sample=Cimbasso_marcato_half_FF_A#4.opus
</region>

<region>
hikey=C#2
hivel=127
lokey=C2
lovel=1
pitch_keycenter=C2
sample=Cimbasso_marcato_half_FF_C3.opus
tune=-1
</region>

<region>
hikey=C#3
hivel=127
lokey=C3
lovel=1
offset=458
pitch_keycenter=C3
sample=Cimbasso_marcato_half_FF_C4.opus
</region>

<region>
hikey=D#2
hivel=127
lokey=D2
lovel=1
offset=584
pitch_keycenter=D2
sample=Cimbasso_marcato_half_FF_D3.opus
tune=-1
</region>

<region>
hikey=D#3
hivel=127
lokey=D3
lovel=1
pitch_keycenter=D3
sample=Cimbasso_marcato_half_FF_D4.opus
</region>

<region>
hikey=F1
hivel=127
lokey=E1
lovel=1
offset=706
pitch_keycenter=E1
sample=Cimbasso_marcato_half_FF_E2.opus
</region>

<region>
hikey=F2
hivel=127
lokey=E2
lovel=1
offset=125
pitch_keycenter=E2
sample=Cimbasso_marcato_half_FF_E3.opus
tune=-4
</region>

<region>
hikey=F3
hivel=127
lokey=E3
lovel=1
offset=430
pitch_keycenter=E3
sample=Cimbasso_marcato_half_FF_E4.opus
tune=-2
</region>

<region>
hikey=G1
hivel=127
lokey=F#1
lovel=1
offset=3676
pitch_keycenter=F#1
sample=Cimbasso_marcato_half_FF_F#2.opus
</region>

<region>
hikey=G2
hivel=127
lokey=F#2
lovel=1
offset=1027
pitch_keycenter=F#2
sample=Cimbasso_marcato_half_FF_F#3.opus
</region>

<region>
hikey=G3
hivel=127
lokey=F#3
lovel=1
offset=1382
pitch_keycenter=F#3
sample=Cimbasso_marcato_half_FF_F#4.opus
</region>

<region>
hikey=A1
hivel=127
lokey=G#1
lovel=1
offset=2057
pitch_keycenter=G#1
sample=Cimbasso_marcato_half_FF_G#2.opus
tune=-2
</region>

<region>
hikey=A2
hivel=127
lokey=G#2
lovel=1
offset=387
pitch_keycenter=G#2
sample=Cimbasso_marcato_half_FF_G#3.opus
tune=-6
</region>

<region>
hikey=A3
hivel=127
lokey=G#3
lovel=1
offset=1210
pitch_keycenter=G#3
sample=Cimbasso_marcato_half_FF_G#4.opus
tune=-1
</region>
</group>